<?xml version="1.0" standalone="no"?>
<!DOCTYPE svg PUBLIC "-//W3C//DTD SVG 20010904//EN"
 "http://www.w3.org/TR/2001/REC-SVG-20010904/DTD/svg10.dtd">
<svg version="1.0" xmlns="http://www.w3.org/2000/svg"
 width="512.000000pt" height="512.000000pt" viewBox="0 0 512.000000 512.000000"
 preserveAspectRatio="xMidYMid meet">
<metadata>
Created by potrace 1.14, written by Peter Selinger 2001-2017
</metadata>
<g transform="translate(0.000000,512.000000) scale(0.100000,-0.100000)"
fill="#000000" stroke="none">
<path d="M2513 5113 c26 -2 68 -2 95 0 26 2 4 3 -48 3 -52 0 -74 -1 -47 -3z"/>
<path d="M2318 5103 c7 -3 16 -2 19 1 4 3 -2 6 -13 5 -11 0 -14 -3 -6 -6z"/>
<path d="M2788 5103 c7 -3 16 -2 19 1 4 3 -2 6 -13 5 -11 0 -14 -3 -6 -6z"/>
<path d="M2228 5093 c7 -3 16 -2 19 1 4 3 -2 6 -13 5 -11 0 -14 -3 -6 -6z"/>
<path d="M2320 4629 c-362 -42 -732 -192 -1031 -419 -108 -83 -296 -271 -379
-379 -190 -250 -330 -558 -389 -853 -88 -438 -36 -891 147 -1283 112 -241 238
-421 423 -606 495 -496 1194 -707 1887 -568 559 112 1065 470 1364 964 148
245 258 562 284 820 l7 65 107 65 c59 36 113 65 119 65 6 0 11 5 11 10 0 6 7
10 15 10 21 0 19 34 -3 52 -9 8 -66 43 -127 78 -60 35 -113 67 -116 72 -3 6
-9 42 -12 81 -22 253 -135 583 -285 832 -127 209 -327 435 -511 575 -305 231
-670 378 -1046 420 -106 12 -358 11 -465 -1z m143 -690 c93 -14 215 -44 297
-74 193 -70 350 -168 350 -220 0 -17 -223 -375 -705 -1136 -2 -3 172 -232 386
-510 l390 -504 -33 -28 c-137 -116 -380 -227 -598 -274 -121 -26 -459 -26
-580 0 -673 144 -1140 703 -1140 1362 0 194 24 326 92 502 101 263 305 510
552 668 116 74 293 151 426 186 141 36 416 50 563 28z m1642 -1003 l609 -356
-524 0 -525 0 -108 348 c-137 441 -126 397 -91 379 16 -8 303 -175 639 -371z
m-631 -10 c58 -187 104 -341 102 -343 -1 -2 -168 -2 -370 -1 l-367 3 262 343
c144 188 263 341 264 340 2 -2 51 -156 109 -342z m102 -443 c-30 -102 -166
-646 -166 -664 0 -23 0 -23 -19 -4 -10 11 -134 170 -275 353 l-256 332 361 0
c338 0 360 -1 355 -17z m511 -348 c-335 -201 -610 -365 -611 -365 -1 0 39 161
91 358 51 196 93 360 93 365 0 4 233 7 518 7 l517 0 -608 -365z"/>
<path d="M2010 3328 c-148 -76 -148 -273 1 -349 51 -26 147 -26 197 0 75 39
112 97 112 176 0 55 -14 92 -48 129 -63 67 -178 86 -262 44z"/>
<path d="M914 4518 l-19 -23 23 19 c21 18 27 26 19 26 -2 0 -12 -10 -23 -22z"/>
<path d="M4195 4520 c10 -11 20 -20 23 -20 3 0 -3 9 -13 20 -10 11 -20 20 -23
20 -3 0 3 -9 13 -20z"/>
<path d="M819 4433 l-34 -38 38 34 c34 33 42 41 34 41 -2 0 -19 -17 -38 -37z"/>
<path d="M4290 4435 c19 -19 36 -35 39 -35 3 0 -10 16 -29 35 -19 19 -36 35
-39 35 -3 0 10 -16 29 -35z"/>
<path d="M679 4293 l-34 -38 38 34 c34 33 42 41 34 41 -2 0 -19 -17 -38 -37z"/>
<path d="M4430 4295 c19 -19 36 -35 39 -35 3 0 -10 16 -29 35 -19 19 -36 35
-39 35 -3 0 10 -16 29 -35z"/>
<path d="M594 4198 l-19 -23 23 19 c12 11 22 21 22 23 0 8 -8 2 -26 -19z"/>
<path d="M4515 4200 c10 -11 20 -20 23 -20 3 0 -3 9 -13 20 -10 11 -20 20 -23
20 -3 0 3 -9 13 -20z"/>
<path d="M21 2884 c0 -11 3 -14 6 -6 3 7 2 16 -1 19 -3 4 -6 -2 -5 -13z"/>
<path d="M11 2794 c0 -11 3 -14 6 -6 3 7 2 16 -1 19 -3 4 -6 -2 -5 -13z"/>
<path d="M5101 2794 c0 -11 3 -14 6 -6 3 7 2 16 -1 19 -3 4 -6 -2 -5 -13z"/>
<path d="M4 2560 c0 -52 1 -74 3 -47 2 26 2 68 0 95 -2 26 -3 4 -3 -48z"/>
<path d="M5114 2560 c0 -52 1 -74 3 -47 2 26 2 68 0 95 -2 26 -3 4 -3 -48z"/>
<path d="M11 2324 c0 -11 3 -14 6 -6 3 7 2 16 -1 19 -3 4 -6 -2 -5 -13z"/>
<path d="M5101 2324 c0 -11 3 -14 6 -6 3 7 2 16 -1 19 -3 4 -6 -2 -5 -13z"/>
<path d="M595 920 c10 -11 20 -20 23 -20 3 0 -3 9 -13 20 -10 11 -20 20 -23
20 -3 0 3 -9 13 -20z"/>
<path d="M4514 918 l-19 -23 23 19 c12 11 22 21 22 23 0 8 -8 2 -26 -19z"/>
<path d="M680 825 c19 -19 36 -35 39 -35 3 0 -10 16 -29 35 -19 19 -36 35 -39
35 -3 0 10 -16 29 -35z"/>
<path d="M4429 823 l-34 -38 38 34 c20 19 37 36 37 38 0 8 -8 0 -41 -34z"/>
<path d="M820 685 c19 -19 36 -35 39 -35 3 0 -10 16 -29 35 -19 19 -36 35 -39
35 -3 0 10 -16 29 -35z"/>
<path d="M4289 683 l-34 -38 38 34 c20 19 37 36 37 38 0 8 -8 0 -41 -34z"/>
<path d="M915 600 c10 -11 20 -20 23 -20 3 0 -3 9 -13 20 -10 11 -20 20 -23
20 -3 0 3 -9 13 -20z"/>
<path d="M4194 598 l-19 -23 23 19 c12 11 22 21 22 23 0 8 -8 2 -26 -19z"/>
<path d="M2318 13 c7 -3 16 -2 19 1 4 3 -2 6 -13 5 -11 0 -14 -3 -6 -6z"/>
<path d="M2788 13 c7 -3 16 -2 19 1 4 3 -2 6 -13 5 -11 0 -14 -3 -6 -6z"/>
<path d="M2513 3 c26 -2 68 -2 95 0 26 2 4 3 -48 3 -52 0 -74 -1 -47 -3z"/>
</g>
</svg>
